<svg width="1724" height="907" viewBox="0 0 1724 907" fill="none" xmlns="http://www.w3.org/2000/svg">
<g clip-path="url(#clip0_1115_30998)">
<rect width="1724" height="907" fill="white"/>
<path d="M338.339 365.877H142.199C135.554 365.877 130.009 371.482 130.009 378.227V400.367C130.009 407.28 135.554 412.736 142.209 412.736H338.33C345.143 412.736 350.529 407.112 350.688 400.376V378.385C350.688 371.491 345.143 365.867 338.339 365.867V365.877ZM338.339 489.115H142.199C140.594 489.118 139.004 489.44 137.524 490.062C136.044 490.685 134.701 491.595 133.575 492.74C131.282 495.068 129.997 498.206 130 501.475V523.615C130 530.528 135.544 535.974 142.199 535.974H338.32C345.134 535.974 350.52 530.519 350.678 523.624V501.475C350.678 494.571 345.143 489.115 338.339 489.115ZM252.627 550.585H142.209C138.97 550.585 135.862 551.884 133.584 554.201C131.291 556.528 130.007 559.666 130.009 562.935V585.076C130.009 591.989 135.554 597.435 142.209 597.435H252.468C259.282 597.435 264.668 591.83 264.668 585.085V562.935C264.709 561.327 264.428 559.727 263.841 558.229C263.254 556.731 262.374 555.366 261.252 554.214C260.13 553.062 258.788 552.147 257.307 551.522C255.826 550.897 254.235 550.585 252.627 550.585ZM350.688 427.487H142.209C138.97 427.487 135.862 428.794 133.584 431.102C131.289 433.432 130.004 436.574 130.009 439.846V461.986C130.009 468.89 135.554 474.346 142.209 474.346H350.538C357.352 474.346 362.728 468.731 362.728 461.986V439.846C362.755 438.241 362.465 436.647 361.873 435.155C361.281 433.664 360.4 432.304 359.281 431.155C358.162 430.006 356.826 429.09 355.351 428.461C353.876 427.831 352.291 427.5 350.688 427.487Z" fill="#00C3F7"/>
<path d="M578.972 415.783C572.947 409.541 565.729 404.575 557.747 401.182C549.72 397.805 541.103 396.059 532.396 396.044C523.911 395.848 515.499 397.663 507.848 401.341C502.715 403.798 498.085 407.226 494.221 411.449V407.609C494.191 405.655 493.462 403.776 492.168 402.312C491.529 401.549 490.729 400.937 489.825 400.52C488.921 400.103 487.936 399.892 486.941 399.902H459.528C458.53 399.876 457.54 400.079 456.633 400.497C455.727 400.915 454.929 401.536 454.301 402.312C452.939 403.735 452.197 405.64 452.238 407.609V590.393C452.238 592.318 453.031 594.242 454.291 595.681C454.979 596.361 455.796 596.897 456.693 597.256C457.591 597.616 458.552 597.792 459.518 597.774H487.249C489.153 597.774 490.889 596.97 492.317 595.681C493.065 595.027 493.653 594.21 494.038 593.294C494.423 592.378 494.594 591.386 494.539 590.393V527.961C498.496 532.296 503.564 535.51 509.109 537.434C516.398 540.162 524.005 541.451 531.762 541.451C540.629 541.451 549.346 539.835 557.429 536.313C565.547 532.926 572.88 527.902 578.972 521.553C585.293 514.936 590.247 507.136 593.551 498.6C597.304 489.047 599.135 478.847 598.937 468.584C599.055 458.279 597.228 448.045 593.551 438.419C590.141 430.029 585.193 422.352 578.962 415.783H578.972ZM553.948 481.896C552.498 485.772 550.289 489.32 547.452 492.331C544.64 495.356 541.229 497.76 537.436 499.39C533.643 501.019 529.552 501.838 525.424 501.795C521.149 501.795 517.033 500.991 513.234 499.225C509.484 497.608 506.09 495.265 503.247 492.331C500.415 489.285 498.16 485.75 496.592 481.896C493.425 473.632 493.425 464.488 496.592 456.225C498.02 452.376 500.4 448.844 503.247 445.948C506.114 443.002 509.5 440.611 513.234 438.895C517.041 437.098 521.216 436.218 525.424 436.326C529.708 436.326 533.824 437.13 537.782 438.886C541.422 440.661 544.754 442.903 547.61 445.799C550.457 448.844 552.52 452.208 554.107 456.066C557.143 464.418 557.087 473.582 553.948 481.896ZM748.165 399.893H720.602C719.648 399.889 718.703 400.087 717.83 400.473C716.956 400.859 716.174 401.426 715.534 402.135C714.824 402.855 714.263 403.709 713.884 404.647C713.504 405.584 713.313 406.588 713.322 407.6V410.963C709.855 406.928 705.594 403.653 700.805 401.341C693.309 397.696 685.057 395.881 676.724 396.044C658.975 396.074 641.954 403.11 629.356 415.625C622.861 422.225 617.696 430.015 614.141 438.568C610.187 448.126 608.248 458.399 608.448 468.743C608.278 479.084 610.216 489.35 614.141 498.917C617.678 507.442 622.785 515.225 629.197 521.861C635.322 528.177 642.664 533.183 650.779 536.574C658.894 539.966 667.613 541.672 676.407 541.591C684.807 541.759 693.04 539.994 700.647 536.294C705.398 533.893 709.831 530.689 713.322 526.672V530.362C713.322 532.287 714.106 534.211 715.534 535.659C716.962 536.939 718.708 537.742 720.602 537.742H748.165C750.102 537.706 751.96 536.966 753.392 535.659C754.078 534.963 754.615 534.135 754.97 533.224C755.325 532.313 755.49 531.339 755.455 530.362V407.6C755.498 405.632 754.759 403.727 753.401 402.303C752.773 401.527 751.975 400.906 751.069 400.488C750.162 400.07 749.163 399.866 748.165 399.893ZM710.942 481.737C709.492 485.614 707.283 489.161 704.446 492.172C701.596 495.064 698.276 497.449 694.627 499.225C686.861 502.757 677.826 502.757 670.069 499.225C666.335 497.51 662.949 495.119 660.082 492.172C657.247 489.161 655.042 485.613 653.595 481.737C650.586 473.5 650.586 464.462 653.595 456.225C655.014 452.376 657.235 449.003 660.092 445.948C662.938 443.062 666.261 440.661 670.069 438.895C673.927 437.151 678.111 436.249 682.343 436.249C686.576 436.249 690.76 437.151 694.617 438.895C698.267 440.661 701.599 442.903 704.446 445.79C707.143 448.844 709.355 452.208 710.942 456.066C714.115 464.408 714.115 473.554 710.942 481.737ZM1023.04 465.202C1019.06 461.702 1014.5 458.934 1009.57 457.028C1004.34 454.939 998.929 453.326 993.41 452.208L972.334 448.041C966.949 447.079 963.15 445.631 961.087 443.865C960.23 443.268 959.526 442.477 959.031 441.557C958.537 440.637 958.266 439.613 958.24 438.568C958.24 436.326 959.51 434.402 962.198 432.795C965.838 430.871 969.805 429.899 973.921 430.226C979.307 430.226 984.692 431.347 989.602 433.43C994.362 435.523 999.113 437.933 1003.39 440.81C1009.57 444.669 1014.79 444.024 1018.43 439.689L1028.58 428.143C1030.47 426.209 1031.58 423.649 1031.75 420.921C1031.67 419.516 1031.28 418.145 1030.63 416.9C1029.97 415.654 1029.06 414.564 1027.94 413.7C1023.66 410.01 1016.86 405.993 1007.82 402.144C998.795 398.295 987.38 396.203 973.921 396.203C965.705 396.092 957.524 397.284 949.681 399.734C942.976 401.804 936.697 405.063 931.144 409.356C926.142 413.276 922.082 418.269 919.262 423.967C916.576 429.522 915.17 435.61 915.146 441.782C915.146 453.179 918.628 462.484 925.441 469.378C932.255 476.282 941.29 480.775 952.537 483.017L974.397 487.838C979.157 488.641 983.899 490.08 988.342 492.172C990.712 493.135 992.299 495.535 992.299 498.263C992.299 500.673 991.03 502.916 988.342 504.849C985.644 506.774 981.211 508.054 975.508 508.054C969.529 508.155 963.611 506.836 958.24 504.205C953.149 501.746 948.409 498.617 944.146 494.9C942.277 493.326 940.122 492.127 937.799 491.369C935.27 490.566 932.255 491.369 928.932 494.097L916.892 503.243C915.253 504.425 913.982 506.047 913.226 507.922C912.469 509.796 912.258 511.847 912.617 513.836C913.242 517.853 916.574 521.852 922.753 526.513C937.94 536.774 955.918 542.098 974.238 541.759C982.766 541.87 991.261 540.679 999.43 538.228C1006.44 536.108 1013.03 532.796 1018.91 528.438C1024.14 524.421 1028.58 519.283 1031.58 513.35C1034.48 507.515 1036 501.09 1036.02 494.573C1036.15 488.716 1034.96 482.904 1032.54 477.571C1030.14 472.91 1026.92 468.713 1023.04 465.202ZM1143.43 498.59C1142.81 497.494 1141.95 496.559 1140.9 495.862C1139.86 495.164 1138.66 494.722 1137.41 494.573C1134.88 494.573 1132.34 495.377 1130.28 496.815C1126.92 499.023 1123.04 500.3 1119.03 500.515C1117.76 500.515 1116.34 500.356 1115.08 500.029C1113.7 499.753 1112.44 499.084 1111.44 498.104C1110.17 496.924 1109.15 495.509 1108.42 493.938C1107.53 491.583 1107.1 489.077 1107.15 486.558V436.485H1142.96C1145.05 436.435 1147.04 435.571 1148.5 434.075C1149.24 433.406 1149.84 432.59 1150.25 431.678C1150.66 430.765 1150.87 429.778 1150.88 428.778V407.609C1150.89 406.583 1150.69 405.565 1150.28 404.624C1149.87 403.684 1149.26 402.841 1148.5 402.153C1147.06 400.735 1145.13 399.931 1143.11 399.911H1107.31V365.72C1107.37 364.703 1107.2 363.687 1106.82 362.743C1106.43 361.8 1105.85 360.953 1105.1 360.264C1103.72 358.961 1101.91 358.218 1100.02 358.181H1072.14C1070.14 358.142 1068.21 358.89 1066.75 360.264C1065.28 361.7 1064.43 363.66 1064.38 365.72V399.911H1048.54C1047.54 399.884 1046.55 400.086 1045.64 400.502C1044.74 400.919 1043.94 401.538 1043.31 402.312C1042.01 403.776 1041.29 405.655 1041.25 407.609V428.787C1041.25 430.712 1042.04 432.646 1043.31 434.084C1043.91 434.888 1044.71 435.528 1045.62 435.949C1046.53 436.37 1047.53 436.557 1048.54 436.494H1064.38V496.031C1064.23 503.098 1065.63 510.113 1068.5 516.573C1071.05 521.853 1074.67 526.55 1079.11 530.372C1083.55 534.062 1088.77 536.631 1094.16 538.237C1099.75 539.974 1105.58 540.841 1111.44 540.806C1119.14 540.791 1126.78 539.542 1134.09 537.107C1140.86 534.845 1147 530.995 1151.99 525.878C1153.51 524.319 1154.43 522.279 1154.6 520.111C1154.77 517.943 1154.18 515.783 1152.93 514.004L1143.43 498.59ZM1294.41 399.893H1266.84C1265.89 399.889 1264.94 400.087 1264.07 400.473C1263.2 400.859 1262.41 401.426 1261.77 402.135C1261.06 402.854 1260.5 403.707 1260.12 404.645C1259.74 405.583 1259.54 406.587 1259.55 407.6V410.963C1256.09 406.926 1251.83 403.65 1247.04 401.341C1239.49 397.679 1231.19 395.864 1222.81 396.044C1214.04 396.044 1205.36 397.774 1197.25 401.134C1189.15 404.493 1181.79 409.417 1175.6 415.625C1169.05 422.185 1163.88 429.985 1160.38 438.568C1156.44 448.072 1154.5 458.287 1154.68 468.575C1154.51 478.916 1156.45 489.183 1160.38 498.749C1163.87 507.25 1169.1 515.116 1175.44 521.693C1181.54 528 1188.86 533.012 1196.94 536.43C1205.02 539.849 1213.71 541.604 1222.49 541.591C1230.85 541.747 1239.14 539.99 1246.72 536.453C1251.48 534.052 1255.91 530.848 1259.39 526.831V530.362C1259.41 532.324 1260.18 534.192 1261.54 535.566C1262.9 536.944 1264.75 537.727 1266.68 537.742H1294.41C1296.33 537.745 1298.17 536.987 1299.54 535.635C1300.9 534.282 1301.68 532.444 1301.69 530.521V407.609C1301.72 406.634 1301.54 405.664 1301.19 404.755C1300.84 403.847 1300.31 403.016 1299.63 402.312C1299 401.536 1298.21 400.914 1297.3 400.496C1296.39 400.078 1295.4 399.866 1294.41 399.893ZM1257.18 481.737C1255.73 485.613 1253.52 489.16 1250.69 492.172C1247.83 495.065 1244.51 497.45 1240.86 499.225C1237 501.041 1232.77 501.921 1228.51 501.795C1224.22 501.795 1220.11 500.832 1216.31 499.225C1212.58 497.51 1209.19 495.119 1206.32 492.172C1203.49 489.16 1201.28 485.613 1199.83 481.737C1196.82 473.499 1196.82 464.463 1199.83 456.225C1201.28 452.398 1203.49 448.903 1206.32 445.948C1209.18 443.062 1212.5 440.661 1216.31 438.895C1220.14 437.155 1224.3 436.278 1228.51 436.326C1232.78 436.326 1236.9 437.13 1240.86 438.886C1244.51 440.661 1247.83 442.903 1250.69 445.799C1253.53 448.844 1255.75 452.208 1257.18 456.066C1260.5 464.3 1260.5 473.503 1257.18 481.737ZM1445.71 496.825L1429.86 484.624C1426.85 482.223 1424 481.579 1421.47 482.541C1419.24 483.498 1417.24 484.922 1415.6 486.717C1412.14 490.917 1408.08 494.593 1403.56 497.628C1398.81 500.356 1393.58 501.645 1388.19 501.318C1382 501.388 1375.94 499.509 1370.88 495.946C1365.78 492.364 1361.93 487.289 1359.83 481.42C1358.4 477.402 1357.65 473.169 1357.62 468.902C1357.62 464.567 1358.25 460.232 1359.83 456.066C1361.26 452.208 1363.33 448.686 1366.17 445.79C1369.03 442.903 1372.35 440.493 1375.99 438.886C1379.87 437.1 1384.08 436.173 1388.35 436.167C1393.73 435.973 1399.06 437.308 1403.72 440.016C1408.28 443.004 1412.34 446.686 1415.76 450.928C1417.34 452.693 1419.24 454.132 1421.47 455.104C1424 456.066 1426.85 455.421 1429.7 453.011L1445.55 440.979C1447.44 439.689 1449.03 437.765 1449.66 435.523C1450.11 434.323 1450.29 433.038 1450.18 431.761C1450.07 430.484 1449.68 429.248 1449.03 428.143C1442.91 418.592 1434.53 410.706 1424.63 405.19C1414.18 399.257 1401.66 396.203 1387.71 396.203C1377.88 396.205 1368.15 398.112 1359.04 401.817C1350.34 405.371 1342.43 410.61 1335.75 417.231C1329.06 423.792 1323.78 431.654 1320.23 440.334C1312.78 458.704 1312.78 479.258 1320.23 497.628C1323.87 506.288 1329.1 514.154 1335.75 520.572C1349.62 534.171 1368.3 541.727 1387.71 541.591C1401.66 541.591 1414.18 538.546 1424.63 532.604C1434.62 527.081 1443.06 519.137 1449.19 509.502C1449.83 508.425 1450.23 507.215 1450.34 505.964C1450.45 504.713 1450.27 503.453 1449.82 502.28C1449.07 500.067 1447.63 498.154 1445.71 496.825ZM1592.4 525.383L1548.83 461.353L1586.07 412.093C1586.94 410.969 1587.53 409.658 1587.81 408.263C1588.08 406.868 1588.02 405.429 1587.64 404.059C1587.01 402.144 1585.27 400.052 1580.68 400.052H1551.21C1549.52 400.099 1547.85 400.48 1546.3 401.173C1544.47 402.089 1542.98 403.548 1542.02 405.348L1512.24 447.079H1505.11V348.381C1505.13 347.407 1504.96 346.437 1504.61 345.528C1504.25 344.619 1503.73 343.789 1503.05 343.084C1502.36 342.407 1501.55 341.875 1500.65 341.517C1499.75 341.159 1498.79 340.984 1497.83 341.001H1470.25C1468.32 341.038 1466.46 341.779 1465.03 343.084C1464.29 343.749 1463.71 344.569 1463.33 345.485C1462.95 346.401 1462.77 347.39 1462.81 348.381V530.362C1462.81 532.445 1463.6 534.379 1465.03 535.659C1465.72 536.337 1466.53 536.87 1467.43 537.228C1468.33 537.586 1469.29 537.76 1470.25 537.742H1497.83C1499.76 537.705 1501.62 536.965 1503.05 535.659C1503.73 534.955 1504.25 534.124 1504.61 533.215C1504.96 532.306 1505.13 531.337 1505.11 530.362V482.223H1513.03L1545.5 532.128C1547.41 535.659 1551.06 537.901 1555.01 537.901H1585.91C1590.66 537.901 1592.55 535.659 1593.35 533.735C1593.9 532.375 1594.11 530.896 1593.94 529.436C1593.78 527.976 1593.24 526.582 1592.4 525.383ZM904.851 399.893H873.956C872.814 399.826 871.67 400.006 870.604 400.422C869.537 400.838 868.573 401.48 867.777 402.303C866.381 403.726 865.397 405.502 864.93 407.441L842.109 492.49H836.574L812.185 407.441C811.721 405.643 810.912 403.952 809.805 402.462C809.133 401.645 808.285 400.99 807.325 400.546C806.366 400.101 805.318 399.878 804.261 399.893H772.255C768.149 399.893 765.61 401.182 764.499 403.91C763.706 406.311 763.706 409.048 764.499 411.449L803.626 531.007C804.261 532.772 805.213 534.538 806.641 535.818C808.228 537.266 810.281 538.06 812.493 537.901H828.977L827.549 541.759L823.909 552.83C822.789 556.193 820.735 559.247 817.888 561.489C815.255 563.515 812.015 564.591 808.695 564.544C805.848 564.544 803.001 563.9 800.462 562.769C797.86 561.64 795.411 560.186 793.173 558.444C791.137 556.99 788.701 556.207 786.2 556.202H785.883C784.45 556.273 783.058 556.708 781.839 557.464C780.62 558.221 779.612 559.275 778.911 560.527L769.091 574.97C765.134 581.229 767.346 585.246 769.885 587.488C775.123 592.331 781.335 595.997 788.104 598.241C795.601 600.803 803.47 602.103 811.392 602.09C825.486 602.09 837.368 598.241 846.394 590.543C855.819 582.26 862.69 571.459 866.2 559.406L911.515 411.449C912.467 408.88 912.626 406.152 911.674 403.583C910.881 401.817 909.126 399.893 904.851 399.893Z" fill="#011B33"/>
</g>
<defs>
<clipPath id="clip0_1115_30998">
<rect width="1724" height="907" fill="white"/>
</clipPath>
</defs>
</svg>
